<mxfile host="app.diagrams.net" modified="2024-01-16T18:34:36.379Z" agent="Mozilla/5.0 (Windows NT 10.0; Win64; x64) AppleWebKit/537.36 (KHTML, like Gecko) Chrome/120.0.0.0 Safari/537.36" etag="w1aZhyDmtB5hGp9Jttp4" version="22.1.19" type="device">
  <diagram name="PÃ¡gina-1" id="GTqEnGO_inv3XeEw4SkS">
    <mxGraphModel dx="1280" dy="971" grid="0" gridSize="10" guides="1" tooltips="1" connect="1" arrows="1" fold="1" page="0" pageScale="1" pageWidth="827" pageHeight="1169" math="0" shadow="0">
      <root>
        <mxCell id="0" />
        <mxCell id="1" parent="0" />
        <mxCell id="S-sKIPK5ya8rCsuywox2-1" value="Menu" style="swimlane;fontStyle=1;align=center;verticalAlign=top;childLayout=stackLayout;horizontal=1;startSize=26;horizontalStack=0;resizeParent=1;resizeParentMax=0;resizeLast=0;collapsible=1;marginBottom=0;whiteSpace=wrap;html=1;fontSize=16;fillColor=#008a00;fontColor=#ffffff;strokeColor=#005700;" vertex="1" parent="1">
          <mxGeometry x="325" y="-185" width="160" height="95" as="geometry" />
        </mxCell>
        <mxCell id="S-sKIPK5ya8rCsuywox2-3" value="" style="line;strokeWidth=1;fillColor=none;align=left;verticalAlign=middle;spacingTop=-1;spacingLeft=3;spacingRight=3;rotatable=0;labelPosition=right;points=[];portConstraint=eastwest;strokeColor=inherit;fontSize=16;" vertex="1" parent="S-sKIPK5ya8rCsuywox2-1">
          <mxGeometry y="26" width="160" height="43" as="geometry" />
        </mxCell>
        <mxCell id="S-sKIPK5ya8rCsuywox2-4" value="+ Menu(): void" style="text;strokeColor=none;fillColor=none;align=left;verticalAlign=top;spacingLeft=4;spacingRight=4;overflow=hidden;rotatable=0;points=[[0,0.5],[1,0.5]];portConstraint=eastwest;whiteSpace=wrap;html=1;fontSize=16;" vertex="1" parent="S-sKIPK5ya8rCsuywox2-1">
          <mxGeometry y="69" width="160" height="26" as="geometry" />
        </mxCell>
        <mxCell id="S-sKIPK5ya8rCsuywox2-5" value="Emisora" style="swimlane;fontStyle=1;align=center;verticalAlign=top;childLayout=stackLayout;horizontal=1;startSize=26;horizontalStack=0;resizeParent=1;resizeParentMax=0;resizeLast=0;collapsible=1;marginBottom=0;whiteSpace=wrap;html=1;fontSize=16;fillColor=#0050ef;fontColor=#ffffff;strokeColor=#001DBC;" vertex="1" parent="1">
          <mxGeometry x="177" y="21" width="330" height="286" as="geometry" />
        </mxCell>
        <mxCell id="S-sKIPK5ya8rCsuywox2-6" value="- nombre: String&amp;nbsp;&lt;br&gt;- frecuencia: double" style="text;strokeColor=none;fillColor=none;align=left;verticalAlign=top;spacingLeft=4;spacingRight=4;overflow=hidden;rotatable=0;points=[[0,0.5],[1,0.5]];portConstraint=eastwest;whiteSpace=wrap;html=1;fontSize=16;" vertex="1" parent="S-sKIPK5ya8rCsuywox2-5">
          <mxGeometry y="26" width="330" height="53" as="geometry" />
        </mxCell>
        <mxCell id="S-sKIPK5ya8rCsuywox2-7" value="" style="line;strokeWidth=1;fillColor=none;align=left;verticalAlign=middle;spacingTop=-1;spacingLeft=3;spacingRight=3;rotatable=0;labelPosition=right;points=[];portConstraint=eastwest;strokeColor=inherit;fontSize=16;" vertex="1" parent="S-sKIPK5ya8rCsuywox2-5">
          <mxGeometry y="79" width="330" height="8" as="geometry" />
        </mxCell>
        <mxCell id="S-sKIPK5ya8rCsuywox2-8" value="+ Emisora(): void&lt;br&gt;+ Emisora(nombre, frecuencia): void&lt;br&gt;&lt;br&gt;+ setNombre(String nombre): void&lt;br&gt;+ setFrecuencia(double frecuencia): void&lt;br&gt;+ getNombre: String&lt;br&gt;+ getFrecuencia: double&lt;br&gt;&lt;br&gt;+toString(): String" style="text;strokeColor=none;fillColor=none;align=left;verticalAlign=top;spacingLeft=4;spacingRight=4;overflow=hidden;rotatable=0;points=[[0,0.5],[1,0.5]];portConstraint=eastwest;whiteSpace=wrap;html=1;fontSize=16;" vertex="1" parent="S-sKIPK5ya8rCsuywox2-5">
          <mxGeometry y="87" width="330" height="199" as="geometry" />
        </mxCell>
        <mxCell id="S-sKIPK5ya8rCsuywox2-9" value="RadioDigital" style="swimlane;fontStyle=1;align=center;verticalAlign=top;childLayout=stackLayout;horizontal=1;startSize=26;horizontalStack=0;resizeParent=1;resizeParentMax=0;resizeLast=0;collapsible=1;marginBottom=0;whiteSpace=wrap;html=1;fontSize=16;fillColor=#1ba1e2;fontColor=#ffffff;strokeColor=#006EAF;" vertex="1" parent="1">
          <mxGeometry x="-207" y="-202" width="284" height="262" as="geometry" />
        </mxCell>
        <mxCell id="S-sKIPK5ya8rCsuywox2-10" value="- Emisora[ ] emisora&lt;br&gt;- emisoraFavorita: int" style="text;strokeColor=none;fillColor=none;align=left;verticalAlign=top;spacingLeft=4;spacingRight=4;overflow=hidden;rotatable=0;points=[[0,0.5],[1,0.5]];portConstraint=eastwest;whiteSpace=wrap;html=1;fontSize=16;" vertex="1" parent="S-sKIPK5ya8rCsuywox2-9">
          <mxGeometry y="26" width="284" height="75" as="geometry" />
        </mxCell>
        <mxCell id="S-sKIPK5ya8rCsuywox2-11" value="" style="line;strokeWidth=1;fillColor=none;align=left;verticalAlign=middle;spacingTop=-1;spacingLeft=3;spacingRight=3;rotatable=0;labelPosition=right;points=[];portConstraint=eastwest;strokeColor=inherit;fontSize=16;" vertex="1" parent="S-sKIPK5ya8rCsuywox2-9">
          <mxGeometry y="101" width="284" height="8" as="geometry" />
        </mxCell>
        <mxCell id="S-sKIPK5ya8rCsuywox2-12" value="+&amp;nbsp;mostrarEmisoraFavorita(): void&lt;br&gt;- mostrarEmisoras(): void&lt;br&gt;&lt;br&gt;+ subirFrecuencia(): void&lt;br&gt;+ bajarFrecuencia(): void" style="text;strokeColor=none;fillColor=none;align=left;verticalAlign=top;spacingLeft=4;spacingRight=4;overflow=hidden;rotatable=0;points=[[0,0.5],[1,0.5]];portConstraint=eastwest;whiteSpace=wrap;html=1;fontSize=16;" vertex="1" parent="S-sKIPK5ya8rCsuywox2-9">
          <mxGeometry y="109" width="284" height="153" as="geometry" />
        </mxCell>
        <mxCell id="S-sKIPK5ya8rCsuywox2-13" value="1" style="endArrow=open;html=1;endSize=12;startArrow=diamondThin;startSize=14;startFill=1;align=left;verticalAlign=bottom;rounded=0;fontSize=12;exitX=0;exitY=0.066;exitDx=0;exitDy=0;exitPerimeter=0;entryX=1.011;entryY=0.069;entryDx=0;entryDy=0;entryPerimeter=0;" edge="1" parent="1" source="S-sKIPK5ya8rCsuywox2-5" target="S-sKIPK5ya8rCsuywox2-9">
          <mxGeometry x="-1" y="3" relative="1" as="geometry">
            <mxPoint x="9" y="27" as="sourcePoint" />
            <mxPoint x="169" y="27" as="targetPoint" />
          </mxGeometry>
        </mxCell>
      </root>
    </mxGraphModel>
  </diagram>
</mxfile>
